<svg xmlns="http://www.w3.org/2000/svg" xmlns:svg="http://www.w3.org/2000/svg" xmlns:xlink="http://www.w3.org/1999/xlink" version="1.0" height="686.1610561509907pt" width="886.7194767489859pt" viewBox="345 -703 894.7194767489859 692.1610561509907" ><defs><style type="text/css">
            @font-face {
                font-family: 'noto_regular';
                src: url('https://app.creately.com/diagram/assets/fonts/noto/noto-regular.woff') format('woff'),
                     url('https://app.creately.com/diagram/assets/fonts/noto/noto-regular.woff2') format('woff2');
                font-weight: normal;
                font-style: normal;
            }
        p {
            margin: 0;
        }
        </style></defs><defs><style>
            span{ display: inline-block; }
        </style></defs><g id="vbvREaDitqx"><g transform="translate(578.3086526691554 -512.3112605709929)"><rect x="0" y="0" width="103.29338651898394" height="39.02055918052113" fill="rgb(215,240,222)" stroke="#417C50" stroke-width="2" stroke-linecap="round" stroke-linejoin="round"/></g><g transform="translate(610.7953459286474, -501.80098098073233) rotate(0, 19.16, 9)" width="38.32" height="18"><text text-decoration="none" x="1.1600000000000001" fill="#040404" font-weight="bold" font-size="10pt" font-family="noto_regular"  y="15">Books</text><text text-decoration="none" x="37.16" fill="#4b4b4b" font-size="10pt" font-family="noto_regular"  y="15"></text></g></g><g id="OCZQhxvK4Qk"><g transform="translate(576.6619551874812 -220.9402554095135)"><path d="M 106.58678148233241,41.44858469372642 L 53.293390741166206,82.89716938745283 L 0,41.44858469372642 L 53.293390741166206,0 L 106.58678148233241,41.44858469372642 L 106.58678148233241,41.44858469372642 Z" fill="rgb(255,241,240)" stroke="#EC4A42" stroke-width="2" stroke-linecap="round" stroke-linejoin="round"/></g><g transform="translate(598.9453459286474, -197.49667071578708) rotate(0, 31.01, 18.005)" width="62.02" height="36.01"><text text-decoration="none" x="3.0100000000000016" fill="#040404" font-weight="bold" font-size="10pt" font-family="noto_regular"  y="12">Borrowed</text><text text-decoration="none" x="59.010000000000005" fill="#040404" font-weight="bold" font-size="10pt" font-family="noto_regular"  y="12"></text><text text-decoration="none" x="24.01" fill="#040404" font-weight="bold" font-size="10pt" font-family="noto_regular"  y="31">by</text><text text-decoration="none" x="38.010000000000005" fill="#4b4b4b" font-size="10pt" font-family="noto_regular"  y="31"></text></g></g><g id="SLKHtc45aK7"><g transform="translate(437.6735337000118 -413.461892503607)"><ellipse cx="55.00000000000001" cy="30" rx="55.00000000000001" ry="30" fill="rgb(255,239,202)" stroke="#fcae00" stroke-width="2" stroke-linecap="round" stroke-linejoin="round"/></g><g transform="translate(464.52853370001185, -392.461892503607) rotate(0, 28.145, 9)" width="56.29" height="18"><text text-decoration="none" x="1.6449999999999996" fill="#040404" font-weight="bold" font-size="10pt" font-family="noto_regular"  y="15">Available</text><text text-decoration="none" x="54.644999999999996" fill="#4b4b4b" font-size="10pt" font-family="noto_regular"  y="15"></text></g></g><g id="nbR08dCC4fT"><g transform="translate(889.8003296199906 -198.921619599653)"><rect x="0" y="0" width="100" height="39.71189748295042" fill="rgb(215,240,222)" stroke="#417C50" stroke-width="2" stroke-linecap="round" stroke-linejoin="round"/></g><g transform="translate(913.1403296199907, -188.0656708581778) rotate(0, 26.66, 9)" width="53.32" height="18"><text text-decoration="none" x="2.66" fill="#040404" font-weight="bold" font-size="10pt" font-family="noto_regular"  y="15">Member</text><text text-decoration="none" x="50.66" fill="#4b4b4b" font-size="10pt" font-family="noto_regular"  y="15"></text></g></g><g id="Z1l5K6GWWpg"><g transform="translate(889.8003296199906 -512.8009809807323)"><rect x="0" y="0" width="100" height="40" fill="rgb(215,240,222)" stroke="#417C50" stroke-width="2" stroke-linecap="round" stroke-linejoin="round"/></g><g transform="translate(910.2803296199907, -501.80098098073233) rotate(0, 29.52, 9)" width="59.04" height="18"><text text-decoration="none" x="2.5199999999999996" fill="#040404" font-weight="bold" font-size="10pt" font-family="noto_regular"  y="15">Publisher</text><text text-decoration="none" x="56.519999999999996" fill="#4b4b4b" font-size="10pt" font-family="noto_regular"  y="15"></text></g></g><g id="gkYK6RB6q13"><g transform="translate(732.0166496524417 -536.437344617096)"><path d="M 106.58678148233241,43.63636363636363 L 53.293390741166206,87.27272727272727 L 0,43.63636363636363 L 53.293390741166206,0 L 106.58678148233241,43.63636363636363 L 106.58678148233241,43.63636363636363 Z" fill="rgb(255,241,240)" stroke="#EC4A42" stroke-width="2" stroke-linecap="round" stroke-linejoin="round"/></g><g transform="translate(754.440040393608, -510.80598098073233) rotate(0, 30.87, 18.005)" width="61.74" height="36.01"><text text-decoration="none" x="2.870000000000001" fill="#040404" font-weight="bold" font-size="10pt" font-family="noto_regular"  y="12">Published</text><text text-decoration="none" x="58.870000000000005" fill="#040404" font-weight="bold" font-size="10pt" font-family="noto_regular"  y="12"></text><text text-decoration="none" x="23.87" fill="#040404" font-weight="bold" font-size="10pt" font-family="noto_regular"  y="31">by</text><text text-decoration="none" x="37.870000000000005" fill="#4b4b4b" font-size="10pt" font-family="noto_regular"  y="31"></text></g></g><g id="doESWTz5tek"><g transform="translate(371.9204119893802 -495.76640418104654)"><ellipse cx="55.00000000000001" cy="30" rx="55.00000000000001" ry="30" fill="rgb(255,239,202)" stroke="#fcae00" stroke-width="2" stroke-linecap="round" stroke-linejoin="round"/></g><g transform="translate(411.4504119893802, -474.76640418104654) rotate(0, 15.47, 9)" width="30.94" height="18"><text text-decoration="none" x="0.47000000000000064" fill="#040404" font-weight="bold" font-size="10pt" font-family="noto_regular"  y="15">Price</text><text text-decoration="none" x="30.47" fill="#4b4b4b" font-size="10pt" font-family="noto_regular"  y="15"></text></g></g><g id="yNcPc9coJ9I"><g transform="translate(1016.3368881700335 -73.8389438490093)"><ellipse cx="55.00000000000001" cy="30" rx="55.00000000000001" ry="30" fill="rgb(255,239,202)" stroke="#fcae00" stroke-width="2" stroke-linecap="round" stroke-linejoin="round"/></g><g transform="translate(1034.8168881700335, -52.8389438490093) rotate(0, 36.52, 9)" width="73.04" height="18"><text text-decoration="none" x="3.520000000000003" fill="#040404" font-weight="bold" font-size="10pt" font-family="noto_regular"  y="15">Member_ID</text><text text-decoration="none" x="69.52000000000001" fill="#4b4b4b" font-size="10pt" font-family="noto_regular"  y="15"></text></g></g><g id="BG4QoOYOVsd"><g transform="translate(374.48602026247045 -651.9737009001987)"><ellipse cx="55.00000000000001" cy="30" rx="55.00000000000001" ry="30" fill="rgb(255,239,202)" stroke="#fcae00" stroke-width="2" stroke-linecap="round" stroke-linejoin="round"/></g><g transform="translate(404.96602026247047, -630.9737009001987) rotate(0, 24.52, 9)" width="49.04" height="18"><text text-decoration="none" x="2.0199999999999996" fill="#040404" font-weight="bold" font-size="10pt" font-family="noto_regular"  y="15">Book_id</text><text text-decoration="none" x="47.019999999999996" fill="#4b4b4b" font-size="10pt" font-family="noto_regular"  y="15"></text></g></g><g id="FXBr0A10PGE"><g transform="translate(468.3086544196335 -700)"><ellipse cx="55.00000000000001" cy="30" rx="55.00000000000001" ry="30" fill="rgb(255,239,202)" stroke="#fcae00" stroke-width="2" stroke-linecap="round" stroke-linejoin="round"/></g><g transform="translate(501.6086544196335, -679) rotate(0, 21.7, 9)" width="43.4" height="18"><text text-decoration="none" x="2.1999999999999993" fill="#040404" font-weight="bold" font-size="10pt" font-family="noto_regular"  y="15">Author</text><text text-decoration="none" x="41.2" fill="#4b4b4b" font-size="10pt" font-family="noto_regular"  y="15"></text></g></g><g id="RMk8OcHVpne"><g transform="translate(397.641395438879 -301.3868615997534)"><ellipse cx="55.00000000000001" cy="30" rx="55.00000000000001" ry="30" fill="rgb(255,239,202)" stroke="#fcae00" stroke-width="2" stroke-linecap="round" stroke-linejoin="round"/></g><g transform="translate(424.146395438879, -280.3868615997534) rotate(0, 28.495, 9)" width="56.99" height="18"><text text-decoration="none" x="3.495000000000001" fill="#040404" font-weight="bold" font-size="10pt" font-family="noto_regular"  y="15">Due&#160;</text><text text-decoration="none" x="28.495" fill="#040404" font-weight="bold" font-size="10pt" font-family="noto_regular"  y="15">date</text><text text-decoration="none" x="53.495000000000005" fill="#4b4b4b" font-size="10pt" font-family="noto_regular"  y="15"></text></g></g><g id="h0XKeUWVEh2"><g transform="translate(350 -574.387658778275)"><ellipse cx="55.00000000000001" cy="30" rx="55.00000000000001" ry="30" fill="rgb(255,239,202)" stroke="#fcae00" stroke-width="2" stroke-linecap="round" stroke-linejoin="round"/></g><g transform="translate(391.685, -553.387658778275) rotate(0, 13.315, 9)" width="26.63" height="18"><text text-decoration="none" x="0.8149999999999995" fill="#040404" font-weight="bold" font-size="10pt" font-family="noto_regular"  y="15">Title</text><text text-decoration="none" x="25.814999999999998" fill="#4b4b4b" font-size="10pt" font-family="noto_regular"  y="15"></text></g></g><g id="iPBxDSmq3Jg"><g transform="translate(1126.719474806198 -528.2906077517898)"><ellipse cx="55.00000000000001" cy="30" rx="55.00000000000001" ry="30" fill="rgb(255,239,202)" stroke="#fcae00" stroke-width="2" stroke-linecap="round" stroke-linejoin="round"/></g><g transform="translate(1162.919474806198, -507.2906077517898) rotate(0, 18.8, 9)" width="37.6" height="18"><text text-decoration="none" x="1.8000000000000007" fill="#040404" font-weight="bold" font-size="10pt" font-family="noto_regular"  y="15">Name</text><text text-decoration="none" x="35.8" fill="#4b4b4b" font-size="10pt" font-family="noto_regular"  y="15"></text></g></g><g id="ej65kwzh8Jy"><g transform="translate(1110.2202946872562 -613.7560658911544)"><ellipse cx="55.00000000000001" cy="30" rx="55.00000000000001" ry="30" fill="rgb(255,239,202)" stroke="#fcae00" stroke-width="2" stroke-linecap="round" stroke-linejoin="round"/></g><g transform="translate(1139.8602946872563, -592.7560658911544) rotate(0, 25.36, 9)" width="50.72" height="18"><text text-decoration="none" x="0.8599999999999994" fill="#040404" font-weight="bold" font-size="10pt" font-family="noto_regular"  y="15">Address</text><text text-decoration="none" x="49.86" fill="#4b4b4b" font-size="10pt" font-family="noto_regular"  y="15"></text></g></g><g id="58ImSRmDfYR"><g transform="translate(1085.5829623308682 -690)"><ellipse cx="55.00000000000001" cy="30" rx="55.00000000000001" ry="30" fill="rgb(255,239,202)" stroke="#fcae00" stroke-width="2" stroke-linecap="round" stroke-linejoin="round"/></g><g transform="translate(1118.4629623308683, -669) rotate(0, 22.12, 9)" width="44.24" height="18"><text text-decoration="none" x="2.120000000000001" fill="#040404" font-weight="bold" font-size="10pt" font-family="noto_regular"  y="15">Pub_ID</text><text text-decoration="none" x="42.120000000000005" fill="#4b4b4b" font-size="10pt" font-family="noto_regular"  y="15"></text></g></g><g id="eKdQbyaYPxz"><g transform="translate(397.64139263486913 -123.77738855107509)"><ellipse cx="55.00000000000001" cy="30" rx="55.00000000000001" ry="30" fill="rgb(255,239,202)" stroke="#fcae00" stroke-width="2" stroke-linecap="round" stroke-linejoin="round"/></g><g transform="translate(436.11639263486916, -102.77738855107509) rotate(0, 16.525, 9)" width="33.05" height="18"><text text-decoration="none" x="0.5249999999999986" fill="#040404" font-weight="bold" font-size="10pt" font-family="noto_regular"  y="15">Issue</text><text text-decoration="none" x="32.525" fill="#4b4b4b" font-size="10pt" font-family="noto_regular"  y="15"></text></g></g><g id="hDj2t9bvkjF"><g transform="translate(374.48602026247045 -209.4916748549282)"><ellipse cx="55.00000000000001" cy="30" rx="55.00000000000001" ry="30" fill="rgb(255,239,202)" stroke="#fcae00" stroke-width="2" stroke-linecap="round" stroke-linejoin="round"/></g><g transform="translate(392.43602026247044, -188.4916748549282) rotate(0, 37.05, 9)" width="74.1" height="18"><text text-decoration="none" x="4.049999999999997" fill="#040404" font-weight="bold" font-size="10pt" font-family="noto_regular"  y="15">Return&#160;</text><text text-decoration="none" x="45.05" fill="#040404" font-weight="bold" font-size="10pt" font-family="noto_regular"  y="15">date</text><text text-decoration="none" x="70.05" fill="#4b4b4b" font-size="10pt" font-family="noto_regular"  y="15"></text></g></g><g id="fZJRbW2YnLJ"><g transform="translate(1126.719474806198 -123.3513886934652)"><ellipse cx="55.00000000000001" cy="30" rx="55.00000000000001" ry="30" fill="rgb(255,239,202)" stroke="#fcae00" stroke-width="2" stroke-linecap="round" stroke-linejoin="round"/></g><g transform="translate(1137.554474806198, -102.3513886934652) rotate(0, 44.165, 9)" width="88.33" height="18"><text text-decoration="none" x="4.164999999999999" fill="#040404" font-weight="bold" font-size="10pt" font-family="noto_regular"  y="15">Member_Date</text><text text-decoration="none" x="84.16499999999999" fill="#4b4b4b" font-size="10pt" font-family="noto_regular"  y="15"></text></g></g><g id="V68Hpbpnbyq"><g transform="translate(1126.719476748986 -208.6464766688473)"><ellipse cx="55.00000000000001" cy="30" rx="55.00000000000001" ry="30" fill="rgb(255,239,202)" stroke="#fcae00" stroke-width="2" stroke-linecap="round" stroke-linejoin="round"/></g><g transform="translate(1137.359476748986, -187.6464766688473) rotate(0, 44.36, 9)" width="88.72" height="18"><text text-decoration="none" x="2.8599999999999994" fill="#040404" font-weight="bold" font-size="10pt" font-family="noto_regular"  y="15">Member_Type</text><text text-decoration="none" x="85.86" fill="#4b4b4b" font-size="10pt" font-family="noto_regular"  y="15"></text></g></g><g id="JijKmW9aZEI"><g transform="translate(1126.719474806198 -282.5090844826964)"><ellipse cx="55.00000000000001" cy="30" rx="55.00000000000001" ry="30" fill="rgb(255,239,202)" stroke="#fcae00" stroke-width="2" stroke-linecap="round" stroke-linejoin="round"/></g><g transform="translate(1156.359474806198, -261.5090844826964) rotate(0, 25.36, 9)" width="50.72" height="18"><text text-decoration="none" x="0.8599999999999994" fill="#040404" font-weight="bold" font-size="10pt" font-family="noto_regular"  y="15">Address</text><text text-decoration="none" x="49.86" fill="#4b4b4b" font-size="10pt" font-family="noto_regular"  y="15"></text></g></g><g id="MdfnvbvbJl3"><g transform="translate(1113.0073052762802 -360.9608656230408)"><ellipse cx="55.00000000000001" cy="30" rx="55.00000000000001" ry="30" fill="rgb(255,239,202)" stroke="#fcae00" stroke-width="2" stroke-linecap="round" stroke-linejoin="round"/></g><g transform="translate(1149.2073052762803, -339.9608656230408) rotate(0, 18.8, 9)" width="37.6" height="18"><text text-decoration="none" x="1.8000000000000007" fill="#040404" font-weight="bold" font-size="10pt" font-family="noto_regular"  y="15">Name</text><text text-decoration="none" x="35.8" fill="#4b4b4b" font-size="10pt" font-family="noto_regular"  y="15"></text></g></g><g id="xcr0hOos5hz"><g transform="translate(999.6863964670351 -389.8428377406116)"><ellipse cx="55.00000000000001" cy="30" rx="55.00000000000001" ry="30" fill="rgb(255,239,202)" stroke="#fcae00" stroke-width="2" stroke-linecap="round" stroke-linejoin="round"/></g><g transform="translate(1014.2313964670351, -368.8428377406116) rotate(0, 40.455, 9)" width="80.91" height="18"><text text-decoration="none" x="2.9549999999999983" fill="#040404" font-weight="bold" font-size="10pt" font-family="noto_regular"  y="15">Expiary_Date</text><text text-decoration="none" x="77.955" fill="#4b4b4b" font-size="10pt" font-family="noto_regular"  y="15"></text></g></g><g id="gj9sCs5aXiB"><g><path d="M 577,-179 L 497,-112" fill="none" stroke="#a2a2a2" stroke-width="2" stroke-linecap="round" stroke-linejoin="round"/></g></g><g id="aXcKHdcC2fb"><g><path d="M 577,-179 L 484,-179" fill="none" stroke="#a2a2a2" stroke-width="2" stroke-linecap="round" stroke-linejoin="round"/></g></g><g id="ZZyODz31F4j"><g><path d="M 577,-179 L 497,-253" fill="none" stroke="#a2a2a2" stroke-width="2" stroke-linecap="round" stroke-linejoin="round"/></g></g><g id="RNEuYT4FL4y"><g><path d="M 578,-491 L 493,-413" fill="none" stroke="#a2a2a2" stroke-width="2" stroke-linecap="round" stroke-linejoin="round"/></g></g><g id="kAEfCluOxtE"><g><path d="M 578,-491 L 482,-469" fill="none" stroke="#a2a2a2" stroke-width="2" stroke-linecap="round" stroke-linejoin="round"/></g></g><g id="vv9Sp7Hs4e2"><g><path d="M 578,-493 L 460,-544" fill="none" stroke="#a2a2a2" stroke-width="2" stroke-linecap="round" stroke-linejoin="round"/></g></g><g id="AwRvYMF5UDn"><g><path d="M 578,-493 L 473,-604" fill="none" stroke="#a2a2a2" stroke-width="2" stroke-linecap="round" stroke-linejoin="round"/></g></g><g id="cbtS6Awd890"><g><path d="M 523,-640 L 578,-491" fill="none" stroke="#a2a2a2" stroke-width="2" stroke-linecap="round" stroke-linejoin="round"/></g></g><g id="pTuCCVlJpk4"><g><path d="M 990,-493 L 1097,-642" fill="none" stroke="#a2a2a2" stroke-width="2" stroke-linecap="round" stroke-linejoin="round"/></g></g><g id="tuleBtT4qWM"><g><path d="M 990,-493 L 1110,-584" fill="none" stroke="#a2a2a2" stroke-width="2" stroke-linecap="round" stroke-linejoin="round"/></g></g><g id="QYqcF02k2NO"><g><path d="M 990,-493 L 1127,-498" fill="none" stroke="#a2a2a2" stroke-width="2" stroke-linecap="round" stroke-linejoin="round"/></g></g><g id="5m3vroQ08DV"><mask id="b5363" x="976" y="-346" width="71" height="181" maskUnits="userSpaceOnUse"><rect x="976" y="-346" width="71" height="181" fill="white" />undefined</mask><g mask="url(#b5363)"><path d="M 990,-179 L 1033,-332" fill="none" stroke="#a2a2a2" stroke-width="2" stroke-linecap="round" stroke-linejoin="round"/></g>undefined</g><g id="3JoESJO4fgO"><mask id="d9da1" x="976" y="-326" width="157" height="161" maskUnits="userSpaceOnUse"><rect x="976" y="-326" width="157" height="161" fill="white" />undefinedundefined</mask><g mask="url(#d9da1)"><path d="M 990,-179 L 1119,-312" fill="none" stroke="#a2a2a2" stroke-width="2" stroke-linecap="round" stroke-linejoin="round"/></g>undefinedundefined</g><g id="cdpbg7I6Vqz"><mask id="5013e" x="976" y="-267" width="165" height="102" maskUnits="userSpaceOnUse"><rect x="976" y="-267" width="165" height="102" fill="white" />undefinedundefined</mask><g mask="url(#5013e)"><path d="M 990,-179 L 1127,-253" fill="none" stroke="#a2a2a2" stroke-width="2" stroke-linecap="round" stroke-linejoin="round"/></g>undefinedundefined</g><g id="uj2Hx7wgMKI"><mask id="4bbb5" x="976" y="-193" width="165" height="28" maskUnits="userSpaceOnUse"><rect x="976" y="-193" width="165" height="28" fill="white" />undefinedundefined</mask><g mask="url(#4bbb5)"><path d="M 990,-179 L 1127,-179" fill="none" stroke="#a2a2a2" stroke-width="2" stroke-linecap="round" stroke-linejoin="round"/></g>undefinedundefined</g><g id="W5uvWI8cgKx"><mask id="06b7c" x="976" y="-193" width="176" height="96" maskUnits="userSpaceOnUse"><rect x="976" y="-193" width="176" height="96" fill="white" />undefinedundefined</mask><g mask="url(#06b7c)"><path d="M 990,-179 L 1138,-111" fill="none" stroke="#a2a2a2" stroke-width="2" stroke-linecap="round" stroke-linejoin="round"/></g>undefinedundefined</g><g id="9iBRvBtZIJU"><g><path d="M 990,-179 L 1067,-79" fill="none" stroke="#a2a2a2" stroke-width="2" stroke-linecap="round" stroke-linejoin="round"/></g></g><g id="Gr8IHqiyxhe"><g><path d="M 890,-179 L 796.5245311309902,-179.05932434465646 Q 796.044550611472,-179.05962896500353 787,-179 Q 777.2086037224334,-179.44742642365435 776.5246459230038,-179.444178091973 L 683,-179" fill="none" stroke="#a2a2a2" stroke-width="2" stroke-linecap="round" stroke-linejoin="round"/><path d="M 688,-173.25 L 688,-184.75 Z" fill="none" stroke="#a2a2a2" stroke-width="2" stroke-linecap="round" stroke-linejoin="round"/></g></g><g id="JvAS8Xnt6E2"><g><path d="M 630,-221 L 630,-473" fill="none" stroke="#a2a2a2" stroke-width="2" stroke-linecap="round" stroke-linejoin="round"/><path d="M 624.25,-468 L 635.75,-468 Z" fill="none" stroke="#a2a2a2" stroke-width="2" stroke-linecap="round" stroke-linejoin="round"/></g></g><g id="F71e7R1h5Lq"><g><path d="M 732,-493 L 682,-493" fill="none" stroke="#a2a2a2" stroke-width="2" stroke-linecap="round" stroke-linejoin="round"/><path d="M 687,-487.25 L 687,-498.75 Z" fill="none" stroke="#a2a2a2" stroke-width="2" stroke-linecap="round" stroke-linejoin="round"/></g></g><g id="MMvksZQ5D3N"><g><path d="M 839,-493 L 854.2024868058055,-492.832567731851 Q 854.545679410711,-492.82878798732725 864,-493 Q 873.9181053577267,-492.87593658194896 874.2015828248304,-492.8781234625555 L 890,-493" fill="none" stroke="#000000" stroke-width="2" stroke-linecap="round" stroke-linejoin="round"/><path d="M 885,-498.75 L 885,-487.25 Z" fill="none" stroke="#000000" stroke-width="2" stroke-linecap="round" stroke-linejoin="round"/></g></g></svg>